<?xml version="1.0" encoding="UTF-8" standalone="no"?>
<!-- Created with Inkscape (http://www.inkscape.org/) -->

<svg
   xmlns:dc="http://purl.org/dc/elements/1.1/"
   xmlns:cc="http://creativecommons.org/ns#"
   xmlns:rdf="http://www.w3.org/1999/02/22-rdf-syntax-ns#"
   xmlns:svg="http://www.w3.org/2000/svg"
   xmlns="http://www.w3.org/2000/svg"
   xmlns:xlink="http://www.w3.org/1999/xlink"
   xmlns:sodipodi="http://sodipodi.sourceforge.net/DTD/sodipodi-0.dtd"
   xmlns:inkscape="http://www.inkscape.org/namespaces/inkscape"
   width="300"
   height="300"
   viewBox="0 0 79.374998 79.375002"
   version="1.1"
   id="svg8"
   inkscape:version="0.92.1 r15371"
   sodipodi:docname="logo.svg">
  <defs
     id="defs2">
    <circle
       r="64"
       cy="64"
       cx="64"
       id="SVGID_1_" />
    <defs
       id="defs8526">
      <circle
         r="64"
         cy="64"
         cx="64"
         id="circle8586" />
    </defs>
    <clipPath
       id="SVGID_2_">
      <use
         id="use8528"
         overflow="visible"
         xlink:href="#SVGID_1_"
         style="overflow:visible"
         x="0"
         y="0"
         width="100%"
         height="100%" />
    </clipPath>
  </defs>
  <sodipodi:namedview
     id="base"
     pagecolor="#ffffff"
     bordercolor="#666666"
     borderopacity="1.0"
     inkscape:pageopacity="0.0"
     inkscape:pageshadow="2"
     inkscape:zoom="1.4"
     inkscape:cx="71.936109"
     inkscape:cy="-36.297185"
     inkscape:document-units="mm"
     inkscape:current-layer="layer1"
     showgrid="false"
     units="px"
     inkscape:window-width="1918"
     inkscape:window-height="1057"
     inkscape:window-x="0"
     inkscape:window-y="0"
     inkscape:window-maximized="0" />
  <metadata
     id="metadata5">
    <rdf:RDF>
      <cc:Work
         rdf:about="">
        <dc:format>image/svg+xml</dc:format>
        <dc:type
           rdf:resource="http://purl.org/dc/dcmitype/StillImage" />
        <dc:title></dc:title>
      </cc:Work>
    </rdf:RDF>
  </metadata>
  <g
     inkscape:label="Calque 1"
     inkscape:groupmode="layer"
     id="layer1"
     transform="translate(0,-217.62498)">
    <path
       style="fill:#1abc9c;stroke:none;stroke-width:0.26458332px;stroke-linecap:butt;stroke-linejoin:miter;stroke-opacity:1;fill-opacity:1"
       d="m 25.617504,217.78252 -3.883873,24.41091 43.571372,-18.32609 z"
       id="path8433"
       inkscape:connector-curvature="0" />
    <path
       style="fill:#1ab39c;stroke:none;stroke-width:0.265;stroke-linecap:butt;stroke-linejoin:miter;stroke-opacity:1;fill-opacity:1;stroke-miterlimit:4;stroke-dasharray:none"
       d="m 43.46726,232.93302 21.837743,-9.06568 14.280586,39.6875 z"
       id="path8435"
       inkscape:connector-curvature="0" />
    <path
       style="fill:#1abc9c;stroke:none;stroke-width:0.26458332px;stroke-linecap:butt;stroke-linejoin:miter;stroke-opacity:1;fill-opacity:1"
       d="m 61.610118,248.24105 17.975473,15.31379 -25.40691,33.60267 z"
       id="path8437"
       inkscape:connector-curvature="0" />
    <path
       style="fill:#1ab39c;stroke:none;stroke-width:0.265;stroke-linecap:butt;stroke-linejoin:miter;stroke-opacity:1;fill-opacity:1;stroke-miterlimit:4;stroke-dasharray:none"
       d="m 57.830357,272.62051 -21.884287,9.3175 -21.454888,9.13468 39.687499,6.08482 z"
       id="path8439"
       inkscape:connector-curvature="0"
       sodipodi:nodetypes="ccccc" />
    <path
       style="fill:#1abc9c;stroke:none;stroke-width:0.26458332px;stroke-linecap:butt;stroke-linejoin:miter;stroke-opacity:1;fill-opacity:1"
       d="M 35.974556,281.82557 0.21059367,251.38519 14.491182,291.07269 Z"
       id="path8441"
       inkscape:connector-curvature="0"
       sodipodi:nodetypes="cccc" />
    <path
       style="fill:#1ab39c;stroke:none;stroke-width:0.265;stroke-linecap:butt;stroke-linejoin:miter;stroke-opacity:1;fill-opacity:1;stroke-miterlimit:4;stroke-dasharray:none"
       d="M 18.142857,266.5729 25.617504,217.78252 0.21059367,251.38519 Z"
       id="path8443"
       inkscape:connector-curvature="0" />
    <path
       style="fill:#1ac39c;stroke:none;stroke-width:0.26458332px;stroke-linecap:butt;stroke-linejoin:miter;stroke-opacity:1;fill-opacity:1"
       d="m 21.733631,242.19343 21.733629,-9.26041 18.142858,15.30803 -3.779761,24.37946 -21.8558,9.20506 -17.8317,-15.25267 z"
       id="path8445"
       inkscape:connector-curvature="0" />
    <path
       style="fill:#d9b455;stroke-width:0.57143182"
       inkscape:connector-curvature="0"
       d="m 48.37577,227.2544 c 0.0069,-0.005 0.01314,-0.0177 0.02057,-0.0246 0.297716,0.0286 0.589717,0.0749 0.882862,0.11943 -0.300573,-0.0343 -0.600004,-0.0674 -0.903434,-0.0949 z"
       id="path8531" />
    <path
       style="fill:#f5f5f5;stroke-width:2.15974236"
       d="M 140.16406 237.43555 L 129.87695 288.86914 L 129.92383 289.12109 L 136.48438 290.12695 L 136.25195 288.90039 L 146.29492 238.66992 L 140.16406 237.43555 z "
       id="polygon8533"
       transform="matrix(0.26458333,0,0,0.26458333,0,217.62498)" />
    <path
       style="fill:#f5f5f5;stroke-width:2.15974236"
       d="M 143.88477 236.14062 L 110.86133 278.82617 L 112.99414 286.52539 L 119.77539 287.56445 L 117.72852 280.17578 L 148.83008 239.9668 L 143.88477 236.14062 z "
       id="polygon8535"
       transform="matrix(0.26458333,0,0,0.26458333,0,217.62498)" />
    <path
       style="fill:#f5f5f5;stroke-width:2.15974236"
       d="M 127.60352 288.76367 L 138.06055 290.36719 A 5.4727868 4.3972355 0 0 0 138.53711 288.58984 A 5.4727868 4.3972355 0 0 0 133.06445 284.19336 A 5.4727868 4.3972355 0 0 0 127.5918 288.58984 A 5.4727868 4.3972355 0 0 0 127.60352 288.76367 z "
       id="ellipse8537"
       transform="matrix(0.26458333,0,0,0.26458333,0,217.62498)" />
    <ellipse
       id="ellipse8539"
       ry="1.1640066"
       rx="1.4474368"
       cy="291.65363"
       cx="-30.317383"
       style="fill:#f5f5f5;stroke-width:0.57143182"
       transform="scale(-1,1)" />
    <path
       style="fill:#d9b455;stroke-width:0.57143182"
       inkscape:connector-curvature="0"
       d="m 48.412342,239.72076 c 0.0063,0.02 0.0097,0.044 0.01371,0.0646 -0.01086,-0.0137 -0.02057,-0.0286 -0.03086,-0.0446 -0.0069,-0.009 -0.012,-0.02 -0.01771,-0.0309 0.01143,0.002 0.02286,0.007 0.03486,0.0109 z"
       id="path8543" />
    <path
       style="fill:#ee8e88;stroke-width:0.57143182"
       inkscape:connector-curvature="0"
       d="m 29.779093,256.19571 c 3.578878,0.009 6.619466,2.13829 9.301767,4.01716 2.468586,1.72801 4.624026,3.31716 6.272607,2.43259 0.236573,-0.12629 0.625147,-0.38229 0.716576,-0.63086 1.014291,-2.72459 -6.017749,-11.95721 -5.720604,-23.21499 l 4.736027,0.016 c 0,9.17262 14.736083,19.44868 14.736083,28.20701 0,1.68859 -0.394859,3.26631 -1.353722,4.68289 -3.621735,6.32175 -8.470333,7.12975 -12.444642,7.23204 -1.770867,1.70344 -6.152035,2.91316 -11.289778,2.91316 -5.121743,0 -9.491482,-1.20229 -11.272064,-2.89659 h -8.16976 c -1.144007,0 -2.069155,-0.92515 -2.069155,-2.06858 0,-10.24806 8.348047,-20.68983 16.556665,-20.68983 z"
       id="path8545" />
    <g
       id="g8553"
       transform="matrix(-0.57143181,0,0,0.57143181,72.946195,216.74234)">
      <path
         style="fill:#d9817c"
         inkscape:connector-curvature="0"
         d="m 42.688,79.227 c 0.162,0.437 0.84,0.885 1.256,1.104 1.242,0.668 2.652,0.526 4.197,-0.087 C 47.729,80.008 47.177,79.617 47.035,79.226 45.26,74.458 57.565,58.301 57.046,38.6 L 52.7,38.616 C 53.214,58.31 40.913,74.46 42.688,79.227 Z"
         id="path8547" />
      <path
         style="fill:#d9817c"
         inkscape:connector-curvature="0"
         d="m 64.7,113.895 c 0.715,0.027 1.437,0.049 2.172,0.049 8.963,0 16.61,-2.104 19.726,-5.07 h -4.345 c -2.86,2.722 -9.544,4.713 -17.553,5.021 z"
         id="path8549" />
      <path
         style="fill:#d9817c"
         inkscape:connector-curvature="0"
         d="m 75.542,69.043 c -0.726,0.002 -1.438,0.059 -2.14,0.152 13.615,1.729 26.768,19.039 26.768,36.056 0,2.001 -1.619,3.62 -3.621,3.62 h 4.346 c 2.002,0 3.621,-1.619 3.621,-3.62 0,-17.935 -14.609,-36.208 -28.974,-36.208 z"
         id="path8551" />
    </g>
    <path
       style="fill:#ee8e88;stroke-width:0.57143182"
       inkscape:connector-curvature="0"
       d="m 51.552359,228.78069 c -0.207429,-1.75943 -3.54402,-3.46687 -5.225172,-3.46687 -1.137721,0 -4.137738,0 -4.137738,0 -6.186321,0 -9.725198,3.24916 -9.725198,8.20004 0,4.55317 4.918885,6.05204 7.882902,6.15318 l 7.358899,0.0349 z"
       id="path8555" />
    <path
       style="fill:#d9817c;stroke-width:0.57143182"
       inkscape:connector-curvature="0"
       d="m 42.189449,225.16067 c 0,0 1.278293,0 2.483443,0 -6.187464,0 -9.72577,3.32459 -9.72577,8.27548 0,4.55202 4.918314,6.08975 7.882902,6.19089 l 4.877742,0.0109 -0.0017,0.006 -7.358899,-0.016 c -2.964017,-0.10114 -7.882902,-1.63886 -7.882902,-6.19089 0,-4.95088 3.538877,-8.27662 9.725198,-8.27662 z"
       id="path8557" />
    <path
       style="fill:#f5f5f5;stroke-width:0.57143182"
       inkscape:connector-curvature="0"
       d="m 51.552359,228.70412 c 0.96972,0 5.793748,3.54345 7.241184,4.42231 1.44858,0.87944 1.500009,4.70689 1.552009,7.44862 0.052,2.74115 -0.103429,6.36175 -1.137721,6.36175 -1.034291,0 -2.5263,-4.86174 -3.254304,-5.48289 -0.727432,-0.62058 -7.488042,-1.80973 -8.246332,-1.80973 -0.75829,0 -2.464586,-3.10401 -1.845153,-5.32803 0.619432,-2.22458 3.102874,-5.61203 5.690317,-5.61203 z"
       id="path8559" />
    <path
       style="fill:#242424;stroke-width:0.57143182"
       inkscape:connector-curvature="0"
       d="m 54.878093,235.33445 c 1.227435,0.48114 2.814873,0.37028 4.906313,-0.64287 0.489146,1.60059 0.525717,3.99888 0.560003,5.88347 0.052,2.74115 -0.104,6.36175 -1.13772,6.36175 -0.920006,0 -2.201727,-3.8406 -2.986303,-5.12689 0.618289,-2.32173 -0.04572,-3.73888 -1.342293,-6.47546 z"
       id="path8561" />
    <circle
       style="fill:#f5f5f5;stroke-width:0.57143182"
       cx="-46.1889"
       cy="229.26469"
       r="1.6548665"
       id="circle8563"
       transform="scale(-1,1)" />
    <circle
       style="fill:#242424;stroke-width:0.57143182"
       cx="-46.189472"
       cy="229.26469"
       r="0.82743323"
       id="circle8565"
       transform="scale(-1,1)" />
  </g>
</svg>
