<svg xmlns="http://www.w3.org/2000/svg" data-name="Layer 1" viewBox="0 0 100 125" x="0px" y="0px"><title>100all</title><path d="M97.53,52l.26,0L88,33.46a14.59,14.59,0,0,0-7.55-6.38,14.11,14.11,0,0,0-26.06.2,9.67,9.67,0,0,0-8.69,0,14.1,14.1,0,0,0-26.13,0,14.55,14.55,0,0,0-7.12,6.25L4.82,47.45A21.84,21.84,0,1,0,44.66,61.74a20.55,20.55,0,0,0,.1-2.07,22.13,22.13,0,0,0-.43-4.37h0a21.58,21.58,0,0,0-.75-2.65,7.14,7.14,0,0,1,12.84,0,21.71,21.71,0,0,0-.75,2.66,22.13,22.13,0,0,0-.43,4.37,20.33,20.33,0,0,0,.1,2A21.84,21.84,0,1,0,97.53,52ZM22.91,74.32A14.65,14.65,0,1,1,37,55.48a14.27,14.27,0,0,1,.62,4.19A14.69,14.69,0,0,1,22.91,74.32Zm54.18,0a14.69,14.69,0,0,1-14.7-14.65A14.33,14.33,0,0,1,63,55.46,14.77,14.77,0,0,1,77.09,45,14.6,14.6,0,0,1,87.75,49.6h.06l.76.93A14.64,14.64,0,0,1,77.09,74.32Z"/><text x="0" y="115" fill="#000000" font-size="5px" font-weight="bold" font-family="'Helvetica Neue', Helvetica, Arial-Unicode, Arial, Sans-serif">Created by Kiran</text><text x="0" y="120" fill="#000000" font-size="5px" font-weight="bold" font-family="'Helvetica Neue', Helvetica, Arial-Unicode, Arial, Sans-serif">from the Noun Project</text></svg>