<?xml version="1.0" encoding="UTF-8" standalone="no"?>
<!-- Created with Inkscape (http://www.inkscape.org/) -->

<svg
   xmlns:dc="http://purl.org/dc/elements/1.1/"
   xmlns:cc="http://creativecommons.org/ns#"
   xmlns:rdf="http://www.w3.org/1999/02/22-rdf-syntax-ns#"
   xmlns:svg="http://www.w3.org/2000/svg"
   xmlns="http://www.w3.org/2000/svg"
   xmlns:sodipodi="http://sodipodi.sourceforge.net/DTD/sodipodi-0.dtd"
   xmlns:inkscape="http://www.inkscape.org/namespaces/inkscape"
   width="68.035637mm"
   height="76.307487mm"
   viewBox="0 0 68.035637 76.307487"
   version="1.1"
   id="svg8"
   inkscape:version="0.92.1 r15371"
   sodipodi:docname="logo.svg">
  <defs
     id="defs2" />
  <sodipodi:namedview
     id="base"
     pagecolor="#ffffff"
     bordercolor="#666666"
     borderopacity="1.0"
     inkscape:pageopacity="0.0"
     inkscape:pageshadow="2"
     inkscape:zoom="1.4"
     inkscape:cx="169.69879"
     inkscape:cy="47.830424"
     inkscape:document-units="mm"
     inkscape:current-layer="layer1"
     showgrid="false"
     inkscape:window-width="1920"
     inkscape:window-height="1080"
     inkscape:window-x="0"
     inkscape:window-y="0"
     inkscape:window-maximized="0"
     fit-margin-top="0"
     fit-margin-left="0"
     fit-margin-right="0"
     fit-margin-bottom="0" />
  <metadata
     id="metadata5">
    <rdf:RDF>
      <cc:Work
         rdf:about="">
        <dc:format>image/svg+xml</dc:format>
        <dc:type
           rdf:resource="http://purl.org/dc/dcmitype/StillImage" />
        <dc:title></dc:title>
      </cc:Work>
    </rdf:RDF>
  </metadata>
  <g
     inkscape:label="Calque 1"
     inkscape:groupmode="layer"
     id="layer1"
     transform="translate(-58.208333,-63.054549)">
    <g
       id="g8563">
      <path
         transform="scale(0.26458333)"
         id="path8458"
         d="M 477.14258,448.23438 227.375,461.00781 355.94727,526.72266 Z"
         style="opacity:1;vector-effect:none;fill:#1aaa9c;fill-opacity:1;stroke:none;stroke-width:0;stroke-linecap:butt;stroke-linejoin:miter;stroke-miterlimit:4;stroke-dasharray:none;stroke-dashoffset:0;stroke-opacity:1"
         inkscape:connector-curvature="0" />
      <path
         transform="scale(0.26458333)"
         id="path8461"
         d="M 310.63086,456.75 220,316.80469 l 7.375,144.20312 z"
         style="opacity:1;vector-effect:none;fill:#1ac39c;fill-opacity:1;stroke:none;stroke-width:0;stroke-linecap:butt;stroke-linejoin:miter;stroke-miterlimit:4;stroke-dasharray:none;stroke-dashoffset:0;stroke-opacity:1"
         inkscape:connector-curvature="0" />
      <path
         transform="scale(0.26458333)"
         id="path8487"
         d="M 303.25586,312.54688 220,316.80469 l 45.31445,69.97265 z"
         style="opacity:1;vector-effect:none;fill:#1ab39c;fill-opacity:1;stroke:none;stroke-width:0;stroke-linecap:butt;stroke-linejoin:miter;stroke-miterlimit:4;stroke-dasharray:none;stroke-dashoffset:0;stroke-opacity:1"
         inkscape:connector-curvature="0" />
      <path
         transform="scale(0.26458333)"
         id="path8490"
         d="m 431.82812,378.26172 -45.3164,-69.97266 -83.25586,4.25782 -37.94141,74.23046 45.31641,69.97266 83.25586,-4.25781 z"
         style="opacity:1;vector-effect:none;fill:#1abc9c;fill-opacity:1;stroke:none;stroke-width:0;stroke-linecap:butt;stroke-linejoin:miter;stroke-miterlimit:4;stroke-dasharray:none;stroke-dashoffset:0;stroke-opacity:1"
         inkscape:connector-curvature="0" />
      <path
         transform="scale(0.26458333)"
         id="path8455"
         d="m 431.82812,378.26172 -37.9414,74.23047 83.25586,-4.25781 z"
         style="opacity:1;vector-effect:none;fill:#1ab39c;fill-opacity:1;stroke:none;stroke-width:0;stroke-linecap:butt;stroke-linejoin:miter;stroke-miterlimit:4;stroke-dasharray:none;stroke-dashoffset:0;stroke-opacity:1"
         inkscape:connector-curvature="0" />
      <path
         transform="scale(0.26458333)"
         id="path8449"
         d="m 386.51172,308.28906 90.63086,139.94532 -7.375,-144.20313 z"
         style="opacity:1;vector-effect:none;fill:#1ac39c;fill-opacity:1;stroke:none;stroke-width:0;stroke-linecap:butt;stroke-linejoin:miter;stroke-miterlimit:4;stroke-dasharray:none;stroke-dashoffset:0;stroke-opacity:1"
         inkscape:connector-curvature="0" />
      <path
         transform="scale(0.26458333)"
         id="path8419"
         d="M 341.19531,238.31641 220,316.80469 469.76758,304.03125 Z"
         style="opacity:1;vector-effect:none;fill:#1aaa9c;fill-opacity:1;stroke:none;stroke-width:0;stroke-linecap:butt;stroke-linejoin:miter;stroke-miterlimit:4;stroke-dasharray:none;stroke-dashoffset:0;stroke-opacity:1"
         inkscape:connector-curvature="0" />
    </g>
    <g
       aria-label=""
       transform="rotate(-4.8959647,-1.0135645,-10.049147)"
       style="font-style:normal;font-weight:normal;font-size:45.33854294px;line-height:1.25;font-family:sans-serif;letter-spacing:0px;word-spacing:0px;fill:#000000;fill-opacity:1;stroke:none;stroke-width:1.13346362"
       id="text8513">
      <path
         d="m 81.261785,97.962831 q 0,1.518032 -0.48071,2.884259 -0.48071,1.34093 -1.593933,2.32765 -1.113224,0.98672 -2.656556,0.98672 -1.92284,0 -3.491472,-1.44213 -1.568633,-1.46743 -2.327649,-3.440871 -0.759016,-1.973441 -0.759016,-3.82038 0,-1.518031 0.48071,-2.858959 0.48071,-1.366229 1.593934,-2.352949 1.113223,-0.986721 2.656555,-0.986721 1.94814,0 3.491473,1.467431 1.568632,1.44213 2.327648,3.415571 0.759016,1.94814 0.759016,3.820379 z m -8.65278,12.220159 q 0,2.02404 -1.062622,3.51677 -1.062622,1.49273 -3.010763,1.49273 -1.92284,0 -3.592675,-1.39153 -1.644534,-1.41683 -2.530052,-3.39027 -0.885519,-1.97344 -0.885519,-3.84568 0,-2.02404 1.062622,-3.51677 1.062622,-1.51803 3.010763,-1.51803 1.92284,0 3.567374,1.41683 1.669835,1.39152 2.555353,3.39027 0.885519,1.97344 0.885519,3.84568 z m 9.968407,-0.68312 q 2.985462,0 6.451634,2.47945 3.466172,2.45415 5.793821,5.99623 2.327648,3.51677 2.327648,6.42633 0,1.16383 -0.430109,1.92284 -0.430109,0.78432 -1.239726,1.13852 -0.784316,0.37951 -1.619233,0.50602 -0.834918,0.1518 -1.92284,0.1518 -1.720436,0 -4.756499,-1.13853 -3.010763,-1.13852 -4.604696,-1.13852 -1.669835,0 -4.883001,1.11322 -3.187867,1.13853 -5.060106,1.13853 -4.629996,0 -4.629996,-3.69388 0,-2.17584 1.416829,-4.8324 1.41683,-2.68186 3.516774,-4.883 2.125244,-2.20115 4.756499,-3.69388 2.631254,-1.49273 4.883001,-1.49273 z m 6.046826,-5.33841 q -1.543332,0 -2.656555,-0.98672 -1.113224,-0.98672 -1.593934,-2.32765 -0.48071,-1.366227 -0.48071,-2.884259 0,-1.872239 0.759016,-3.820379 0.759016,-1.973441 2.302348,-3.415571 1.568633,-1.467431 3.516773,-1.467431 1.543332,0 2.656555,0.986721 1.113224,0.98672 1.593934,2.352949 0.48071,1.340928 0.48071,2.858959 0,1.846939 -0.759016,3.82038 -0.759016,1.973441 -2.327649,3.440871 -1.568632,1.44213 -3.491472,1.44213 z m 10.929827,-2.63125 q 1.948145,0 3.010765,1.51803 1.06262,1.49273 1.06262,3.51677 0,1.87224 -0.88552,3.84568 -0.88552,1.97344 -2.55535,3.39027 -1.644536,1.39153 -3.567376,1.39153 -1.94814,0 -3.010763,-1.49273 -1.062622,-1.49273 -1.062622,-3.51677 0,-1.87224 0.885519,-3.84568 0.885518,-1.99875 2.530052,-3.39027 1.669835,-1.41683 3.592675,-1.41683 z"
         style="fill:#ffffff;fill-opacity:0.86666667;stroke-width:1.13346362"
         id="path8553"
         inkscape:connector-curvature="0" />
    </g>
  </g>
</svg>
