<svg id="Calque_1" data-name="Calque 1" xmlns="http://www.w3.org/2000/svg" viewBox="0 0 14.42 14.42"><defs><style>.cls-1{fill:none;stroke:#fff;stroke-miterlimit:10;stroke-width:0.25px;}.cls-2{fill:#fff;}.cls-3{fill:#00a89b;}</style></defs><title>marker2</title><circle class="cls-1" cx="7.21" cy="7.21" r="7.09"/><circle class="cls-2" cx="7.21" cy="7.21" r="6.02"/><path class="cls-3" d="M-108.83,9.59h0l-.54-1a.81.81,0,0,0-.42-.35.78.78,0,0,0-1-.41.74.74,0,0,0-.41.42.53.53,0,0,0-.49,0,.78.78,0,0,0-1-.43.82.82,0,0,0-.43.43.83.83,0,0,0-.39.35l-.42.77a1.21,1.21,0,0,0,.32,1.68A1.21,1.21,0,0,0-112,10.7a1.2,1.2,0,0,0,.21-.57V10a1.94,1.94,0,0,0,0-.24h0s0-.1,0-.15a.39.39,0,0,1,.53-.18.35.35,0,0,1,.18.18.83.83,0,0,0,0,.15,1,1,0,0,0,0,.24.41.41,0,0,0,0,.11,1.21,1.21,0,0,0,1.32,1.1,1.21,1.21,0,0,0,1.09-1.32A1.14,1.14,0,0,0-108.83,9.59ZM-113,10.83a.81.81,0,0,1-.81-.81.81.81,0,0,1,.81-.81.8.8,0,0,1,.78.58.85.85,0,0,1,0,.23A.82.82,0,0,1-113,10.83Zm3,0a.82.82,0,0,1-.82-.81,1,1,0,0,1,0-.24A.85.85,0,0,1-110,9.2a.84.84,0,0,1,.59.26h0l0,0a.81.81,0,0,1-.12,1.14A.81.81,0,0,1-110,10.83Z" transform="translate(118.68 -3.82)"/></svg>