<svg width="48" height="48" viewBox="0 0 48 48" fill="none" xmlns="http://www.w3.org/2000/svg">
<path d="M24 4C32.4 4 40 10.44 40 20.4C40 26.76 35.1 34.24 25.32 42.86C24.56 43.52 23.42 43.52 22.66 42.86C12.9 34.24 8 26.76 8 20.4C8 10.44 15.6 4 24 4Z" fill="#218A7D"/>
<circle cx="24" cy="20" r="12" fill="white"/>
<path d="M28.8518 18.25C29.0659 17.9139 29.1787 17.5234 29.1768 17.125C29.1781 16.846 29.1242 16.5694 29.0182 16.3114C28.9122 16.0533 28.7561 15.8187 28.5591 15.6212C28.362 15.4237 28.1278 15.2671 27.87 15.1605C27.6121 15.0538 27.3358 14.9993 27.0568 15H26.9318C27.0148 14.685 27.0325 14.3564 26.9837 14.0343C26.9349 13.7123 26.8207 13.4036 26.648 13.1274C26.4754 12.8512 26.248 12.6133 25.9798 12.4284C25.7117 12.2434 25.4085 12.1154 25.089 12.0521C24.7695 11.9888 24.4404 11.9916 24.122 12.0604C23.8037 12.1292 23.5027 12.2624 23.2378 12.452C22.9729 12.6415 22.7497 12.8833 22.5818 13.1624C22.4139 13.4416 22.305 13.7521 22.2617 14.075C21.7596 14.0756 21.2769 14.2689 20.9132 14.6149C20.5494 14.961 20.3324 15.4335 20.3067 15.935C19.934 16.2675 19.6358 16.675 19.4316 17.1308C19.2274 17.5866 19.1218 18.0805 19.1217 18.58C19.1143 18.6681 19.1143 18.7568 19.1217 18.845C18.8503 19.0197 18.6162 19.2463 18.4328 19.512C18.2495 19.7776 18.1205 20.0769 18.0534 20.3926C17.9863 20.7083 17.9824 21.0342 18.0419 21.3514C18.1013 21.6687 18.223 21.971 18.3999 22.241C18.5768 22.511 18.8054 22.7432 19.0726 22.9244C19.3397 23.1056 19.64 23.2321 19.9563 23.2966C20.2725 23.3611 20.5984 23.3624 20.9152 23.3003C21.2319 23.2382 21.5332 23.1141 21.8017 22.935C22.1936 23.232 22.6588 23.4169 23.1477 23.4697C23.6365 23.5226 24.1305 23.4414 24.5767 23.235C24.762 23.3996 24.9668 23.5407 25.1867 23.655C25.9019 24.033 26.7314 24.1334 27.5161 23.937C28.3008 23.7406 28.9852 23.2612 29.4379 22.5908C29.8905 21.9205 30.0796 21.1065 29.9686 20.3053C29.8577 19.504 29.4546 18.7721 28.8368 18.25H28.8518Z" fill="#218A7D"/>
<path d="M25.2418 24.2352C25.1094 24.1844 24.9807 24.1242 24.8568 24.0552C24.7211 23.9831 24.5907 23.9012 24.4668 23.8102C23.9393 23.9738 23.3798 24.0064 22.8368 23.9052C22.7918 25.4402 22.6418 26.8252 22.5968 27.1652C22.5918 27.2384 22.5918 27.3119 22.5968 27.3852V27.6052C22.5968 27.71 22.6384 27.8104 22.7125 27.8845C22.7866 27.9586 22.887 28.0002 22.9918 28.0002H25.0418C25.0994 28.0009 25.1565 27.9901 25.2098 27.9685C25.2632 27.947 25.3117 27.915 25.3526 27.8746C25.3936 27.8341 25.4261 27.7859 25.4482 27.7328C25.4704 27.6797 25.4818 27.6227 25.4818 27.5652V27.3302C25.4818 27.2902 25.4818 27.2502 25.4818 27.2102C25.4318 26.9552 25.3218 25.6452 25.2418 24.2352Z" fill="#218A7D"/>
</svg>
