<?xml version="1.0" encoding="utf-8"?>
<!-- Generator: Adobe Illustrator 23.0.3, SVG Export Plug-In . SVG Version: 6.00 Build 0)  -->
<svg version="1.1" id="Calque_1" xmlns="http://www.w3.org/2000/svg" xmlns:xlink="http://www.w3.org/1999/xlink" x="0px" y="0px"
	 viewBox="0 0 15.2 19.8" style="enable-background:new 0 0 15.2 19.8;" xml:space="preserve">
<style type="text/css">
	.st0{fill:#FFFFFF;}
	.st1{fill:#00AA9E;}
</style>
<title>pointer-blue</title>
<path class="st0" d="M7.4,19.7C-0.3,13.8,0,7.8,0,7.6C0,3.4,3.4,0,7.6,0s7.6,3.4,7.6,7.6c0.2,7.1-7.4,12.1-7.5,12.1l-0.2,0.1
	L7.4,19.7z"/>
<path class="st1" d="M11.5,7.7L11.5,7.7c-0.6-0.6-1.6-0.6-2.2,0C9.2,7.9,9.1,8.1,9,8.3c0,0.1-0.1,0.3-0.1,0.4c0,0.9,0.7,1.5,1.6,1.5
	c0.3,0,0.7-0.1,0.9-0.3c0.7-0.5,0.8-1.5,0.3-2.1c0,0,0,0,0,0l0,0L11.5,7.7z"/>
<path class="st1" d="M4.8,7.2c-0.8,0-1.5,0.7-1.5,1.5c0,0,0,0,0,0l0,0c-0.1,0.8,0.6,1.6,1.4,1.6C5.5,10.4,6.2,9.8,6.3,9
	c0-0.1,0-0.2,0-0.2c0-0.1,0-0.3-0.1-0.4C6,7.6,5.5,7.2,4.8,7.2z"/>
<path class="st1" d="M7.6,0.3c-4,0-7.3,3.3-7.3,7.3c0,0,0,0,0,0c0,0-0.4,6,7.3,11.9c0,0,7.5-4.8,7.3-11.9C14.9,3.5,11.6,0.3,7.6,0.3
	z M10.6,10.9c-1.2,0.1-2.4-0.8-2.5-2c0,0,0,0,0,0l0,0V8.7c0-0.2,0-0.3,0-0.5c0-0.1,0-0.2,0.1-0.3C8.2,7.8,8,7.7,7.9,7.6
	c-0.4-0.2-0.8,0-1,0.3C6.9,8,7,8.1,7,8.2c0,0.2,0,0.3,0,0.5c0,0.1,0,0.1,0,0.2C7,9.3,6.9,9.6,6.7,10c-0.7,1-2.1,1.3-3.2,0.6
	c-1-0.7-1.3-2.1-0.6-3.2l0.8-1.5c0.2-0.3,0.4-0.5,0.7-0.6c0.1-0.4,0.4-0.7,0.8-0.8c0.7-0.3,1.6,0,1.9,0.8c0,0,0,0,0,0l0,0
	c0.3-0.1,0.6-0.1,0.9,0c0.1-0.4,0.4-0.6,0.8-0.8c0.7-0.3,1.6,0,1.9,0.8c0,0,0,0,0,0l0,0c0.3,0.1,0.6,0.4,0.8,0.7l1,1.9l0,0
	c0.1,0.2,0.1,0.4,0.1,0.6C12.9,9.7,11.9,10.8,10.6,10.9L10.6,10.9z"/>
</svg>
